<svg width="24" height="24" viewBox="0 0 24 24" fill="none"
     xmlns="http://www.w3.org/2000/svg">
  <path d="M9.25 21.16C8.74 21.16 8.33 20.75 8.33 20.25C8.33 19.74 8.74 19.33 9.25 19.33C9.75 19.33 10.16 19.74 10.16 20.25C10.16 20.75 9.75 21.16 9.25 21.16Z"
        stroke="#352C34" stroke-width="2" stroke-linejoin="round"/>
  <path d="M19.33 21.16C18.82 21.16 18.41 20.75 18.41 20.25C18.41 19.74 18.82 19.33 19.33 19.33C19.83 19.33 20.25 19.74 20.25 20.25C20.25 20.75 19.83 21.16 19.33 21.16Z"
        stroke="#352C34" stroke-width="2" stroke-linejoin="round"/>
  <path d="M1.91 1.91H5.58L8.03 14.19C8.12 14.61 8.35 14.99 8.68 15.26C9.02 15.53 9.44 15.67 9.87 15.66H18.78C19.21 15.67 19.63 15.53 19.96 15.26C20.3 14.99 20.53 14.61 20.61 14.19L22.08 6.5H6.49"
        stroke="#352C34" stroke-width="2" stroke-linejoin="round" stroke-linecap="round"/>
</svg>
