<svg width="49.490234" height="48.987305" viewBox="0 0 49.4902 48.9873" fill="none" xmlns="http://www.w3.org/2000/svg" xmlns:xlink="http://www.w3.org/1999/xlink">
	<defs/>
	<path id="Star 2" d="M21.22 13L11.22 3.96L15.29 16.81L2 14.61L12.37 23.22L0 28.55L13.37 30.19L5.85 41.37L17.98 35.51L17.7 48.98L24.74 37.5L31.78 48.98L31.5 35.51L43.63 41.37L36.11 30.19L49.49 28.55L37.11 23.22L47.48 14.61L34.19 16.81L38.26 3.96L28.26 13L24.74 0L21.22 13ZM24.74 11.47L22.84 18.51L17.43 13.62L19.63 20.57L12.44 19.38L18.05 24.03L11.36 26.92L18.59 27.8L14.52 33.85L21.08 30.68L20.93 37.97L24.74 31.76L28.55 37.97L28.4 30.68L34.96 33.85L30.89 27.8L38.12 26.92L31.43 24.03L37.04 19.38L29.85 20.57L32.05 13.62L26.64 18.51L24.74 11.47Z" fill="#EEDB6D" fill-opacity="1.000000" fill-rule="evenodd"/>
</svg>
